<?xml version="1.0" standalone="no"?>
<!DOCTYPE svg PUBLIC "-//W3C//DTD SVG 20010904//EN"
 "http://www.w3.org/TR/2001/REC-SVG-20010904/DTD/svg10.dtd">
<svg version="1.0" xmlns="http://www.w3.org/2000/svg"
 width="512.000000pt" height="512.000000pt" viewBox="0 0 512.000000 512.000000"
 preserveAspectRatio="xMidYMid meet">
<metadata>
Created by potrace 1.14, written by Peter Selinger 2001-2017
</metadata>
<g transform="translate(0.000000,512.000000) scale(0.100000,-0.100000)"
fill="#000000" stroke="none">
<path d="M1133 4630 c-162 -45 -278 -161 -318 -316 -13 -53 -15 -271 -13
-1860 3 -1731 4 -1800 22 -1836 10 -21 34 -54 54 -73 72 -69 -42 -65 1680 -65
1172 0 1564 3 1594 12 22 6 62 31 88 55 87 78 80 -94 80 1923 0 1921 2 1838
-49 1939 -37 71 -117 148 -194 186 -40 19 -90 38 -112 41 -113 19 -248 -6
-338 -63 -80 -50 -151 -144 -171 -225 l-6 -28 -890 0 c-705 0 -890 3 -890 13
0 33 -64 141 -109 185 -108 105 -286 151 -428 112z"/>
</g>
</svg>
